<mxfile host="app.diagrams.net" agent="Mozilla/5.0 (Windows NT 10.0; Win64; x64) AppleWebKit/537.36 (KHTML, like Gecko) Chrome/136.0.0.0 Safari/537.36" version="27.0.6">
  <diagram name="Trang-1" id="7fhELOmFYXn_s-FYaYJF">
    <mxGraphModel dx="1489" dy="753" grid="1" gridSize="10" guides="1" tooltips="1" connect="1" arrows="1" fold="1" page="1" pageScale="1" pageWidth="4800" pageHeight="4336" math="0" shadow="0">
      <root>
        <mxCell id="0" />
        <mxCell id="1" parent="0" />
        <mxCell id="FkhqDQvy7yKT_oOdReSO-3" value="Singapore Region" style="shape=mxgraph.ibm.box;prType=region;fontStyle=0;verticalAlign=top;align=left;spacingLeft=32;spacingTop=4;fillColor=none;rounded=0;whiteSpace=wrap;html=1;strokeColor=#919191;strokeWidth=2;dashed=0;container=1;spacing=-4;collapsible=0;expand=0;recursiveResize=0;" vertex="1" parent="1">
          <mxGeometry x="250" y="170" width="810" height="590" as="geometry" />
        </mxCell>
        <mxCell id="FkhqDQvy7yKT_oOdReSO-4" value="VPC" style="shape=mxgraph.ibm.box;prType=vpc;fontStyle=1;verticalAlign=top;align=left;spacingLeft=32;spacingTop=4;fillColor=none;rounded=0;whiteSpace=wrap;html=1;strokeColor=#4376BB;strokeWidth=2;dashed=0;container=1;spacing=-4;collapsible=0;expand=0;recursiveResize=0;" vertex="1" parent="FkhqDQvy7yKT_oOdReSO-3">
          <mxGeometry x="100" y="80" width="640" height="460" as="geometry" />
        </mxCell>
        <mxCell id="FkhqDQvy7yKT_oOdReSO-8" value="proxy-sg" style="fillColor=none;strokeColor=#DD3522;verticalAlign=top;fontStyle=0;fontColor=#DD3522;whiteSpace=wrap;html=1;" vertex="1" parent="FkhqDQvy7yKT_oOdReSO-4">
          <mxGeometry x="70" y="60" width="100" height="130" as="geometry" />
        </mxCell>
        <mxCell id="FkhqDQvy7yKT_oOdReSO-9" value="flask-sg" style="fillColor=none;strokeColor=#DD3522;verticalAlign=top;fontStyle=0;fontColor=#DD3522;whiteSpace=wrap;html=1;" vertex="1" parent="FkhqDQvy7yKT_oOdReSO-4">
          <mxGeometry x="255" y="130" width="105" height="130" as="geometry" />
        </mxCell>
        <mxCell id="FkhqDQvy7yKT_oOdReSO-10" value="bastion-sg" style="fillColor=none;strokeColor=#DD3522;verticalAlign=top;fontStyle=0;fontColor=#DD3522;whiteSpace=wrap;html=1;" vertex="1" parent="FkhqDQvy7yKT_oOdReSO-4">
          <mxGeometry x="440" y="150" width="130" height="130" as="geometry" />
        </mxCell>
        <mxCell id="FkhqDQvy7yKT_oOdReSO-11" value="" style="outlineConnect=0;dashed=0;verticalLabelPosition=bottom;verticalAlign=top;align=center;html=1;shape=mxgraph.aws3.ec2;fillColor=#F58534;gradientColor=none;" vertex="1" parent="FkhqDQvy7yKT_oOdReSO-4">
          <mxGeometry x="95" y="100" width="50" height="50" as="geometry" />
        </mxCell>
        <mxCell id="FkhqDQvy7yKT_oOdReSO-12" value="" style="outlineConnect=0;dashed=0;verticalLabelPosition=bottom;verticalAlign=top;align=center;html=1;shape=mxgraph.aws3.ec2;fillColor=#F58534;gradientColor=none;" vertex="1" parent="FkhqDQvy7yKT_oOdReSO-4">
          <mxGeometry x="282.5" y="170" width="50" height="50" as="geometry" />
        </mxCell>
        <mxCell id="FkhqDQvy7yKT_oOdReSO-13" value="" style="outlineConnect=0;dashed=0;verticalLabelPosition=bottom;verticalAlign=top;align=center;html=1;shape=mxgraph.aws3.ec2;fillColor=#F58534;gradientColor=none;" vertex="1" parent="FkhqDQvy7yKT_oOdReSO-4">
          <mxGeometry x="480" y="190" width="50" height="50" as="geometry" />
        </mxCell>
        <mxCell id="FkhqDQvy7yKT_oOdReSO-14" value="&lt;b&gt;Proxy EC2&lt;/b&gt;" style="text;strokeColor=none;align=center;fillColor=none;html=1;verticalAlign=middle;whiteSpace=wrap;rounded=0;" vertex="1" parent="FkhqDQvy7yKT_oOdReSO-4">
          <mxGeometry x="90" y="150" width="70" height="30" as="geometry" />
        </mxCell>
        <mxCell id="FkhqDQvy7yKT_oOdReSO-15" value="&lt;b&gt;Flask EC2&lt;/b&gt;" style="text;strokeColor=none;align=center;fillColor=none;html=1;verticalAlign=middle;whiteSpace=wrap;rounded=0;" vertex="1" parent="FkhqDQvy7yKT_oOdReSO-4">
          <mxGeometry x="272.5" y="220" width="70" height="30" as="geometry" />
        </mxCell>
        <mxCell id="FkhqDQvy7yKT_oOdReSO-16" value="&lt;b&gt;Bastion Host&lt;/b&gt;" style="text;strokeColor=none;align=center;fillColor=none;html=1;verticalAlign=middle;whiteSpace=wrap;rounded=0;" vertex="1" parent="FkhqDQvy7yKT_oOdReSO-4">
          <mxGeometry x="470" y="240" width="80" height="30" as="geometry" />
        </mxCell>
        <mxCell id="FkhqDQvy7yKT_oOdReSO-17" value="" style="sketch=0;outlineConnect=0;fontColor=#232F3E;gradientColor=none;fillColor=#E7157B;strokeColor=none;dashed=0;verticalLabelPosition=bottom;verticalAlign=top;align=center;html=1;fontSize=12;fontStyle=0;aspect=fixed;pointerEvents=1;shape=mxgraph.aws4.endpoint;" vertex="1" parent="FkhqDQvy7yKT_oOdReSO-4">
          <mxGeometry x="300" y="430" width="60" height="60" as="geometry" />
        </mxCell>
        <mxCell id="FkhqDQvy7yKT_oOdReSO-23" value="" style="edgeStyle=orthogonalEdgeStyle;html=1;endArrow=block;elbow=vertical;startArrow=none;endFill=1;strokeColor=#545B64;rounded=0;exitX=1;exitY=0.5;exitDx=0;exitDy=0;entryX=0.01;entryY=0.568;entryDx=0;entryDy=0;entryPerimeter=0;" edge="1" parent="FkhqDQvy7yKT_oOdReSO-4" source="FkhqDQvy7yKT_oOdReSO-8" target="FkhqDQvy7yKT_oOdReSO-9">
          <mxGeometry width="100" relative="1" as="geometry">
            <mxPoint x="180" y="120" as="sourcePoint" />
            <mxPoint x="280" y="120" as="targetPoint" />
          </mxGeometry>
        </mxCell>
        <mxCell id="FkhqDQvy7yKT_oOdReSO-24" value="80" style="edgeLabel;html=1;align=center;verticalAlign=middle;resizable=0;points=[];" vertex="1" connectable="0" parent="FkhqDQvy7yKT_oOdReSO-23">
          <mxGeometry x="0.0957" relative="1" as="geometry">
            <mxPoint as="offset" />
          </mxGeometry>
        </mxCell>
        <mxCell id="FkhqDQvy7yKT_oOdReSO-25" value="" style="edgeStyle=orthogonalEdgeStyle;html=1;endArrow=none;elbow=vertical;startArrow=block;startFill=1;strokeColor=#545B64;rounded=0;exitX=1;exitY=0.5;exitDx=0;exitDy=0;entryX=0;entryY=0.5;entryDx=0;entryDy=0;" edge="1" parent="FkhqDQvy7yKT_oOdReSO-4" source="FkhqDQvy7yKT_oOdReSO-9" target="FkhqDQvy7yKT_oOdReSO-10">
          <mxGeometry width="100" relative="1" as="geometry">
            <mxPoint x="380" y="200" as="sourcePoint" />
            <mxPoint x="480" y="200" as="targetPoint" />
          </mxGeometry>
        </mxCell>
        <mxCell id="FkhqDQvy7yKT_oOdReSO-26" value="22" style="edgeLabel;html=1;align=center;verticalAlign=middle;resizable=0;points=[];" vertex="1" connectable="0" parent="FkhqDQvy7yKT_oOdReSO-25">
          <mxGeometry x="0.2867" relative="1" as="geometry">
            <mxPoint as="offset" />
          </mxGeometry>
        </mxCell>
        <mxCell id="FkhqDQvy7yKT_oOdReSO-18" value="" style="sketch=0;points=[[0,0,0],[0.25,0,0],[0.5,0,0],[0.75,0,0],[1,0,0],[0,1,0],[0.25,1,0],[0.5,1,0],[0.75,1,0],[1,1,0],[0,0.25,0],[0,0.5,0],[0,0.75,0],[1,0.25,0],[1,0.5,0],[1,0.75,0]];outlineConnect=0;fontColor=#232F3E;fillColor=#7AA116;strokeColor=#ffffff;dashed=0;verticalLabelPosition=bottom;verticalAlign=top;align=center;html=1;fontSize=12;fontStyle=0;aspect=fixed;shape=mxgraph.aws4.resourceIcon;resIcon=mxgraph.aws4.s3;" vertex="1" parent="1">
          <mxGeometry x="850" y="850" width="68" height="68" as="geometry" />
        </mxCell>
        <mxCell id="FkhqDQvy7yKT_oOdReSO-19" value="" style="edgeStyle=orthogonalEdgeStyle;html=1;endArrow=block;elbow=vertical;startArrow=none;endFill=1;strokeColor=#545B64;rounded=0;entryX=0;entryY=0.5;entryDx=0;entryDy=0;entryPerimeter=0;" edge="1" parent="1" source="FkhqDQvy7yKT_oOdReSO-17" target="FkhqDQvy7yKT_oOdReSO-18">
          <mxGeometry width="100" relative="1" as="geometry">
            <mxPoint x="660" y="850" as="sourcePoint" />
            <mxPoint x="760" y="850" as="targetPoint" />
            <Array as="points">
              <mxPoint x="775" y="720" />
              <mxPoint x="775" y="889" />
            </Array>
          </mxGeometry>
        </mxCell>
        <mxCell id="FkhqDQvy7yKT_oOdReSO-20" value="" style="outlineConnect=0;dashed=0;verticalLabelPosition=bottom;verticalAlign=top;align=center;html=1;shape=mxgraph.aws3.internet;fillColor=#D2D3D3;gradientColor=none;" vertex="1" parent="1">
          <mxGeometry x="110" y="410" width="100" height="90" as="geometry" />
        </mxCell>
        <mxCell id="FkhqDQvy7yKT_oOdReSO-21" value="" style="edgeStyle=orthogonalEdgeStyle;html=1;endArrow=block;elbow=vertical;startArrow=none;endFill=1;strokeColor=#545B64;rounded=0;entryX=0;entryY=0.5;entryDx=0;entryDy=0;" edge="1" parent="1" target="FkhqDQvy7yKT_oOdReSO-8">
          <mxGeometry width="100" relative="1" as="geometry">
            <mxPoint x="210" y="450" as="sourcePoint" />
            <mxPoint x="310" y="450" as="targetPoint" />
          </mxGeometry>
        </mxCell>
        <mxCell id="FkhqDQvy7yKT_oOdReSO-22" value="443" style="edgeLabel;html=1;align=center;verticalAlign=middle;resizable=0;points=[];" vertex="1" connectable="0" parent="FkhqDQvy7yKT_oOdReSO-21">
          <mxGeometry x="-0.4858" y="2" relative="1" as="geometry">
            <mxPoint as="offset" />
          </mxGeometry>
        </mxCell>
        <mxCell id="FkhqDQvy7yKT_oOdReSO-27" value="" style="sketch=0;pointerEvents=1;shadow=0;dashed=0;html=1;strokeColor=none;labelPosition=center;verticalLabelPosition=bottom;verticalAlign=top;align=center;fillColor=#515151;shape=mxgraph.mscae.system_center.admin_console" vertex="1" parent="1">
          <mxGeometry x="1130" y="530" width="130" height="90" as="geometry" />
        </mxCell>
        <mxCell id="FkhqDQvy7yKT_oOdReSO-28" value="" style="edgeStyle=orthogonalEdgeStyle;html=1;endArrow=none;elbow=vertical;startArrow=block;startFill=1;strokeColor=#545B64;rounded=0;entryX=0;entryY=0.5;entryDx=0;entryDy=0;entryPerimeter=0;exitX=1;exitY=0.5;exitDx=0;exitDy=0;" edge="1" parent="1" source="FkhqDQvy7yKT_oOdReSO-10" target="FkhqDQvy7yKT_oOdReSO-27">
          <mxGeometry width="100" relative="1" as="geometry">
            <mxPoint x="1000" y="580" as="sourcePoint" />
            <mxPoint x="1100" y="580" as="targetPoint" />
          </mxGeometry>
        </mxCell>
        <mxCell id="FkhqDQvy7yKT_oOdReSO-30" value="22" style="edgeLabel;html=1;align=center;verticalAlign=middle;resizable=0;points=[];" vertex="1" connectable="0" parent="FkhqDQvy7yKT_oOdReSO-28">
          <mxGeometry x="0.2295" y="-3" relative="1" as="geometry">
            <mxPoint as="offset" />
          </mxGeometry>
        </mxCell>
        <mxCell id="FkhqDQvy7yKT_oOdReSO-31" value="&lt;b&gt;&lt;font style=&quot;font-size: 23px;&quot;&gt;Admin&lt;/font&gt;&lt;/b&gt;" style="text;html=1;align=center;verticalAlign=middle;resizable=0;points=[];autosize=1;strokeColor=none;fillColor=none;" vertex="1" parent="1">
          <mxGeometry x="1150" y="630" width="100" height="40" as="geometry" />
        </mxCell>
      </root>
    </mxGraphModel>
  </diagram>
</mxfile>
